<svg xmlns="http://www.w3.org/2000/svg" xmlns:xlink="http://www.w3.org/1999/xlink" contentStyleType="text/css" data-diagram-type="DESCRIPTION" height="1405px" preserveAspectRatio="none" style="width:411px;height:1405px;background:#FFFFFF;" version="1.1" viewBox="0 0 411 1405" width="411px" zoomAndPan="magnify"><?plantuml 1.2026.7beta1?><defs/><g><!--entity ???--><g class="entity" data-qualified-name="..." data-source-line="14" id="ent0001"><ellipse cx="33.5" cy="1149.5" fill="#F1F1F1" rx="16" ry="16" style="stroke:#181818;stroke-width:0.5;"/><path d="M33.5,1169.5 C37.5,1169.5 40.5,1169.5 44.5,1165.5 C52.5,1165.5 60.5,1173.5 60.5,1181.5 L60.5,1185.5 C60.5,1189.5 56.5,1193.5 52.5,1193.5 L14.5,1193.5 C10.5,1193.5 6.5,1189.5 6.5,1185.5 L6.5,1181.5 C6.5,1173.5 14.5,1165.5 22.5,1165.5 C26.5,1169.5 29.5,1169.5 33.5,1169.5" fill="#F1F1F1" style="stroke:#181818;stroke-width:0.5;"/><text fill="#000000" font-family="sans-serif" font-size="14" lengthAdjust="spacing" textLength="41.9998" x="12.5001" y="1206.9951">&#31649;&#29702;&#21592;</text></g><!--entity ??--><g class="entity" data-qualified-name=".." data-source-line="15" id="ent0002"><ellipse cx="33.5" cy="685.5" fill="#F1F1F1" rx="16" ry="16" style="stroke:#181818;stroke-width:0.5;"/><path d="M33.5,705.5 C37.5,705.5 40.5,705.5 44.5,701.5 C52.5,701.5 60.5,709.5 60.5,717.5 L60.5,721.5 C60.5,725.5 56.5,729.5 52.5,729.5 L14.5,729.5 C10.5,729.5 6.5,725.5 6.5,721.5 L6.5,717.5 C6.5,709.5 14.5,701.5 22.5,701.5 C26.5,705.5 29.5,705.5 33.5,705.5" fill="#F1F1F1" style="stroke:#181818;stroke-width:0.5;"/><text fill="#000000" font-family="sans-serif" font-size="14" lengthAdjust="spacing" textLength="27.9999" x="19.5001" y="742.9951">&#21830;&#23478;</text></g><!--entity ??--><g class="entity" data-qualified-name=".." data-source-line="16" id="ent0003"><ellipse cx="33.5" cy="216.5" fill="#F1F1F1" rx="16" ry="16" style="stroke:#181818;stroke-width:0.5;"/><path d="M33.5,236.5 C37.5,236.5 40.5,236.5 44.5,232.5 C52.5,232.5 60.5,240.5 60.5,248.5 L60.5,252.5 C60.5,256.5 56.5,260.5 52.5,260.5 L14.5,260.5 C10.5,260.5 6.5,256.5 6.5,252.5 L6.5,248.5 C6.5,240.5 14.5,232.5 22.5,232.5 C26.5,236.5 29.5,236.5 33.5,236.5" fill="#F1F1F1" style="stroke:#181818;stroke-width:0.5;"/><text fill="#000000" font-family="sans-serif" font-size="14" lengthAdjust="spacing" textLength="27.9999" x="19.5001" y="273.9951">&#20080;&#23478;</text></g><!--entity A1--><g class="entity" data-qualified-name="A1" data-source-line="18" id="ent0004"><ellipse cx="140.5978" cy="1013.5236" fill="#FFFFFF" rx="42.5978" ry="14.5236" style="stroke:#000000;stroke-width:0.5;"/><text fill="#000000" font-family="sans-serif" font-size="14" lengthAdjust="spacing" textLength="55.9998" x="112.5979" y="1018.1721">&#29992;&#25143;&#31649;&#29702;</text></g><!--entity A1_1--><g class="entity" data-qualified-name="A1_1" data-source-line="19" id="ent0005"><ellipse cx="342.5978" cy="966.5236" fill="#FFFFFF" rx="42.5978" ry="14.5236" style="stroke:#000000;stroke-width:0.5;"/><text fill="#000000" font-family="sans-serif" font-size="14" lengthAdjust="spacing" textLength="55.9998" x="314.5979" y="971.1721">&#28155;&#21152;&#29992;&#25143;</text></g><!--entity A1_2--><g class="entity" data-qualified-name="A1_2" data-source-line="20" id="ent0006"><ellipse cx="342.5978" cy="1013.5236" fill="#FFFFFF" rx="42.5978" ry="14.5236" style="stroke:#000000;stroke-width:0.5;"/><text fill="#000000" font-family="sans-serif" font-size="14" lengthAdjust="spacing" textLength="55.9998" x="314.5979" y="1018.1721">&#21024;&#38500;&#29992;&#25143;</text></g><!--entity A2--><g class="entity" data-qualified-name="A2" data-source-line="21" id="ent0007"><ellipse cx="140.5978" cy="1107.5236" fill="#FFFFFF" rx="42.5978" ry="14.5236" style="stroke:#000000;stroke-width:0.5;"/><text fill="#000000" font-family="sans-serif" font-size="14" lengthAdjust="spacing" textLength="55.9998" x="112.5979" y="1112.1721">&#21830;&#23478;&#31649;&#29702;</text></g><!--entity A2_1--><g class="entity" data-qualified-name="A2_1" data-source-line="22" id="ent0008"><ellipse cx="342.5978" cy="1060.5236" fill="#FFFFFF" rx="42.5978" ry="14.5236" style="stroke:#000000;stroke-width:0.5;"/><text fill="#000000" font-family="sans-serif" font-size="14" lengthAdjust="spacing" textLength="55.9998" x="314.5979" y="1065.1721">&#23457;&#26680;&#21830;&#23478;</text></g><!--entity A2_2--><g class="entity" data-qualified-name="A2_2" data-source-line="23" id="ent0009"><ellipse cx="342.5978" cy="1107.5236" fill="#FFFFFF" rx="42.5978" ry="14.5236" style="stroke:#000000;stroke-width:0.5;"/><text fill="#000000" font-family="sans-serif" font-size="14" lengthAdjust="spacing" textLength="55.9998" x="314.5979" y="1112.1721">&#31105;&#29992;&#21830;&#23478;</text></g><!--entity A3--><g class="entity" data-qualified-name="A3" data-source-line="24" id="ent0010"><ellipse cx="140.5978" cy="1171.5236" fill="#FFFFFF" rx="42.5978" ry="14.5236" style="stroke:#000000;stroke-width:0.5;"/><text fill="#000000" font-family="sans-serif" font-size="14" lengthAdjust="spacing" textLength="55.9998" x="112.5979" y="1176.1721">&#21830;&#21697;&#23457;&#26680;</text></g><!--entity A3_1--><g class="entity" data-qualified-name="A3_1" data-source-line="25" id="ent0011"><ellipse cx="342.5978" cy="1154.5236" fill="#FFFFFF" rx="42.5978" ry="14.5236" style="stroke:#000000;stroke-width:0.5;"/><text fill="#000000" font-family="sans-serif" font-size="14" lengthAdjust="spacing" textLength="55.9998" x="314.5979" y="1159.1721">&#23457;&#26680;&#36890;&#36807;</text></g><!--entity A3_2--><g class="entity" data-qualified-name="A3_2" data-source-line="26" id="ent0012"><ellipse cx="342.5978" cy="1201.5236" fill="#FFFFFF" rx="42.5978" ry="14.5236" style="stroke:#000000;stroke-width:0.5;"/><text fill="#000000" font-family="sans-serif" font-size="14" lengthAdjust="spacing" textLength="55.9998" x="314.5979" y="1206.1721">&#24378;&#21046;&#19979;&#26550;</text></g><!--entity A4--><g class="entity" data-qualified-name="A4" data-source-line="27" id="ent0013"><ellipse cx="140.5978" cy="1248.5236" fill="#FFFFFF" rx="42.5978" ry="14.5236" style="stroke:#000000;stroke-width:0.5;"/><text fill="#000000" font-family="sans-serif" font-size="14" lengthAdjust="spacing" textLength="55.9998" x="112.5979" y="1253.1721">&#35746;&#21333;&#31649;&#29702;</text></g><!--entity A4_1--><g class="entity" data-qualified-name="A4_1" data-source-line="28" id="ent0014"><ellipse cx="342.5978" cy="1248.5236" fill="#FFFFFF" rx="42.5978" ry="14.5236" style="stroke:#000000;stroke-width:0.5;"/><text fill="#000000" font-family="sans-serif" font-size="14" lengthAdjust="spacing" textLength="55.9998" x="314.5979" y="1253.1721">&#26597;&#30475;&#35746;&#21333;</text></g><!--entity A4_2--><g class="entity" data-qualified-name="A4_2" data-source-line="29" id="ent0015"><ellipse cx="342.5978" cy="1295.5236" fill="#FFFFFF" rx="42.5978" ry="14.5236" style="stroke:#000000;stroke-width:0.5;"/><text fill="#000000" font-family="sans-serif" font-size="14" lengthAdjust="spacing" textLength="55.9998" x="314.5979" y="1300.1721">&#24322;&#24120;&#22788;&#29702;</text></g><!--entity A5--><g class="entity" data-qualified-name="A5" data-source-line="30" id="ent0016"><ellipse cx="140.5978" cy="1342.5236" fill="#FFFFFF" rx="42.5978" ry="14.5236" style="stroke:#000000;stroke-width:0.5;"/><text fill="#000000" font-family="sans-serif" font-size="14" lengthAdjust="spacing" textLength="55.9998" x="112.5979" y="1347.1721">&#21806;&#21518;&#20210;&#35009;</text></g><!--entity A5_1--><g class="entity" data-qualified-name="A5_1" data-source-line="31" id="ent0017"><ellipse cx="342.5978" cy="1342.5236" fill="#FFFFFF" rx="42.5978" ry="14.5236" style="stroke:#000000;stroke-width:0.5;"/><text fill="#000000" font-family="sans-serif" font-size="14" lengthAdjust="spacing" textLength="55.9998" x="314.5979" y="1347.1721">&#22788;&#29702;&#30003;&#35785;</text></g><!--entity A5_2--><g class="entity" data-qualified-name="A5_2" data-source-line="32" id="ent0018"><ellipse cx="342.5978" cy="1389.5236" fill="#FFFFFF" rx="42.5978" ry="14.5236" style="stroke:#000000;stroke-width:0.5;"/><text fill="#000000" font-family="sans-serif" font-size="14" lengthAdjust="spacing" textLength="55.9998" x="314.5979" y="1394.1721">&#20171;&#20837;&#20210;&#35009;</text></g><!--entity S1--><g class="entity" data-qualified-name="S1" data-source-line="34" id="ent0019"><ellipse cx="140.5978" cy="543.5236" fill="#FFFFFF" rx="42.5978" ry="14.5236" style="stroke:#000000;stroke-width:0.5;"/><text fill="#000000" font-family="sans-serif" font-size="14" lengthAdjust="spacing" textLength="55.9998" x="112.5979" y="548.1721">&#24215;&#38138;&#31649;&#29702;</text></g><!--entity S1_1--><g class="entity" data-qualified-name="S1_1" data-source-line="35" id="ent0020"><ellipse cx="342.5978" cy="496.5236" fill="#FFFFFF" rx="42.5978" ry="14.5236" style="stroke:#000000;stroke-width:0.5;"/><text fill="#000000" font-family="sans-serif" font-size="14" lengthAdjust="spacing" textLength="55.9998" x="314.5979" y="501.1721">&#36164;&#36136;&#19978;&#20256;</text></g><!--entity S1_2--><g class="entity" data-qualified-name="S1_2" data-source-line="36" id="ent0021"><ellipse cx="342.5978" cy="543.5236" fill="#FFFFFF" rx="42.5978" ry="14.5236" style="stroke:#000000;stroke-width:0.5;"/><text fill="#000000" font-family="sans-serif" font-size="14" lengthAdjust="spacing" textLength="55.9998" x="314.5979" y="548.1721">&#20449;&#24687;&#32500;&#25252;</text></g><!--entity S2--><g class="entity" data-qualified-name="S2" data-source-line="37" id="ent0022"><ellipse cx="140.5978" cy="637.5236" fill="#FFFFFF" rx="42.5978" ry="14.5236" style="stroke:#000000;stroke-width:0.5;"/><text fill="#000000" font-family="sans-serif" font-size="14" lengthAdjust="spacing" textLength="55.9998" x="112.5979" y="642.1721">&#21830;&#21697;&#21457;&#24067;</text></g><!--entity S2_1--><g class="entity" data-qualified-name="S2_1" data-source-line="38" id="ent0023"><ellipse cx="342.5978" cy="590.5236" fill="#FFFFFF" rx="42.5978" ry="14.5236" style="stroke:#000000;stroke-width:0.5;"/><text fill="#000000" font-family="sans-serif" font-size="14" lengthAdjust="spacing" textLength="55.9998" x="314.5979" y="595.1721">&#21457;&#24067;&#21830;&#21697;</text></g><!--entity S2_2--><g class="entity" data-qualified-name="S2_2" data-source-line="39" id="ent0024"><ellipse cx="342.6984" cy="637.5236" fill="#FFFFFF" rx="32.6984" ry="14.5236" style="stroke:#000000;stroke-width:0.5;"/><text fill="#000000" font-family="sans-serif" font-size="14" lengthAdjust="spacing" textLength="41.9998" x="321.6984" y="642.1721">&#19978;&#19979;&#26550;</text></g><!--entity S3--><g class="entity" data-qualified-name="S3" data-source-line="40" id="ent0025"><ellipse cx="140.5978" cy="707.5236" fill="#FFFFFF" rx="42.5978" ry="14.5236" style="stroke:#000000;stroke-width:0.5;"/><text fill="#000000" font-family="sans-serif" font-size="14" lengthAdjust="spacing" textLength="55.9998" x="112.5979" y="712.1721">&#35746;&#21333;&#22788;&#29702;</text></g><!--entity S3_1--><g class="entity" data-qualified-name="S3_1" data-source-line="41" id="ent0026"><ellipse cx="342.5978" cy="684.5236" fill="#FFFFFF" rx="42.5978" ry="14.5236" style="stroke:#000000;stroke-width:0.5;"/><text fill="#000000" font-family="sans-serif" font-size="14" lengthAdjust="spacing" textLength="55.9998" x="314.5979" y="689.1721">&#35746;&#21333;&#21457;&#36135;</text></g><!--entity S3_2--><g class="entity" data-qualified-name="S3_2" data-source-line="42" id="ent0027"><ellipse cx="342.5978" cy="731.5236" fill="#FFFFFF" rx="42.5978" ry="14.5236" style="stroke:#000000;stroke-width:0.5;"/><text fill="#000000" font-family="sans-serif" font-size="14" lengthAdjust="spacing" textLength="55.9998" x="314.5979" y="736.1721">&#36864;&#27454;&#22788;&#29702;</text></g><!--entity S4--><g class="entity" data-qualified-name="S4" data-source-line="43" id="ent0028"><ellipse cx="140.5978" cy="778.5236" fill="#FFFFFF" rx="42.5978" ry="14.5236" style="stroke:#000000;stroke-width:0.5;"/><text fill="#000000" font-family="sans-serif" font-size="14" lengthAdjust="spacing" textLength="55.9998" x="112.5979" y="783.1721">&#33829;&#38144;&#27963;&#21160;</text></g><!--entity S4_1--><g class="entity" data-qualified-name="S4_1" data-source-line="44" id="ent0029"><ellipse cx="342.5978" cy="778.5236" fill="#FFFFFF" rx="42.5978" ry="14.5236" style="stroke:#000000;stroke-width:0.5;"/><text fill="#000000" font-family="sans-serif" font-size="14" lengthAdjust="spacing" textLength="55.9998" x="314.5979" y="783.1721">&#25240;&#25187;&#35774;&#32622;</text></g><!--entity S4_2--><g class="entity" data-qualified-name="S4_2" data-source-line="45" id="ent0030"><ellipse cx="342.4973" cy="825.5236" fill="#FFFFFF" rx="52.4973" ry="14.5236" style="stroke:#000000;stroke-width:0.5;"/><text fill="#000000" font-family="sans-serif" font-size="14" lengthAdjust="spacing" textLength="69.9997" x="307.4974" y="830.1721">&#20248;&#24800;&#21048;&#21457;&#25918;</text></g><!--entity S5--><g class="entity" data-qualified-name="S5" data-source-line="46" id="ent0031"><ellipse cx="140.5978" cy="872.5236" fill="#FFFFFF" rx="42.5978" ry="14.5236" style="stroke:#000000;stroke-width:0.5;"/><text fill="#000000" font-family="sans-serif" font-size="14" lengthAdjust="spacing" textLength="55.9998" x="112.5979" y="877.1721">&#21806;&#21518;&#26381;&#21153;</text></g><!--entity S5_1--><g class="entity" data-qualified-name="S5_1" data-source-line="47" id="ent0032"><ellipse cx="342.5978" cy="872.5236" fill="#FFFFFF" rx="42.5978" ry="14.5236" style="stroke:#000000;stroke-width:0.5;"/><text fill="#000000" font-family="sans-serif" font-size="14" lengthAdjust="spacing" textLength="55.9998" x="314.5979" y="877.1721">&#21516;&#24847;&#36864;&#27454;</text></g><!--entity S5_2--><g class="entity" data-qualified-name="S5_2" data-source-line="48" id="ent0033"><ellipse cx="342.5978" cy="919.5236" fill="#FFFFFF" rx="42.5978" ry="14.5236" style="stroke:#000000;stroke-width:0.5;"/><text fill="#000000" font-family="sans-serif" font-size="14" lengthAdjust="spacing" textLength="55.9998" x="314.5979" y="924.1721">&#25298;&#32477;&#36864;&#27454;</text></g><!--entity B1--><g class="entity" data-qualified-name="B1" data-source-line="50" id="ent0034"><ellipse cx="140.5978" cy="73.5236" fill="#FFFFFF" rx="42.5978" ry="14.5236" style="stroke:#000000;stroke-width:0.5;"/><text fill="#000000" font-family="sans-serif" font-size="14" lengthAdjust="spacing" textLength="55.9998" x="112.5979" y="78.1721">&#36134;&#21495;&#31649;&#29702;</text></g><!--entity B1_1--><g class="entity" data-qualified-name="B1_1" data-source-line="51" id="ent0035"><ellipse cx="342.5978" cy="26.5236" fill="#FFFFFF" rx="42.5978" ry="14.5236" style="stroke:#000000;stroke-width:0.5;"/><text fill="#000000" font-family="sans-serif" font-size="14" lengthAdjust="spacing" textLength="55.9998" x="314.5979" y="31.1721">&#27880;&#20876;&#30331;&#24405;</text></g><!--entity B1_2--><g class="entity" data-qualified-name="B1_2" data-source-line="52" id="ent0036"><ellipse cx="342.5978" cy="73.5236" fill="#FFFFFF" rx="42.5978" ry="14.5236" style="stroke:#000000;stroke-width:0.5;"/><text fill="#000000" font-family="sans-serif" font-size="14" lengthAdjust="spacing" textLength="55.9998" x="314.5979" y="78.1721">&#20462;&#25913;&#23494;&#30721;</text></g><!--entity B2--><g class="entity" data-qualified-name="B2" data-source-line="53" id="ent0037"><ellipse cx="140.5978" cy="167.5236" fill="#FFFFFF" rx="42.5978" ry="14.5236" style="stroke:#000000;stroke-width:0.5;"/><text fill="#000000" font-family="sans-serif" font-size="14" lengthAdjust="spacing" textLength="55.9998" x="112.5979" y="172.1721">&#21830;&#21697;&#27983;&#35272;</text></g><!--entity B2_1--><g class="entity" data-qualified-name="B2_1" data-source-line="54" id="ent0038"><ellipse cx="342.5978" cy="120.5236" fill="#FFFFFF" rx="42.5978" ry="14.5236" style="stroke:#000000;stroke-width:0.5;"/><text fill="#000000" font-family="sans-serif" font-size="14" lengthAdjust="spacing" textLength="55.9998" x="314.5979" y="125.1721">&#25628;&#32034;&#21830;&#21697;</text></g><!--entity B2_2--><g class="entity" data-qualified-name="B2_2" data-source-line="55" id="ent0039"><ellipse cx="342.5978" cy="167.5236" fill="#FFFFFF" rx="42.5978" ry="14.5236" style="stroke:#000000;stroke-width:0.5;"/><text fill="#000000" font-family="sans-serif" font-size="14" lengthAdjust="spacing" textLength="55.9998" x="314.5979" y="172.1721">&#26597;&#30475;&#35814;&#24773;</text></g><!--entity B3--><g class="entity" data-qualified-name="B3" data-source-line="56" id="ent0040"><ellipse cx="140.5978" cy="238.5236" fill="#FFFFFF" rx="42.5978" ry="14.5236" style="stroke:#000000;stroke-width:0.5;"/><text fill="#000000" font-family="sans-serif" font-size="14" lengthAdjust="spacing" textLength="55.9998" x="112.5979" y="243.1721">&#36141;&#29289;&#19979;&#21333;</text></g><!--entity B3_1--><g class="entity" data-qualified-name="B3_1" data-source-line="57" id="ent0041"><ellipse cx="342.4973" cy="214.5236" fill="#FFFFFF" rx="52.4973" ry="14.5236" style="stroke:#000000;stroke-width:0.5;"/><text fill="#000000" font-family="sans-serif" font-size="14" lengthAdjust="spacing" textLength="69.9997" x="307.4974" y="219.1721">&#21152;&#20837;&#36141;&#29289;&#36710;</text></g><!--entity B3_2--><g class="entity" data-qualified-name="B3_2" data-source-line="58" id="ent0042"><ellipse cx="342.5978" cy="261.5236" fill="#FFFFFF" rx="42.5978" ry="14.5236" style="stroke:#000000;stroke-width:0.5;"/><text fill="#000000" font-family="sans-serif" font-size="14" lengthAdjust="spacing" textLength="55.9998" x="314.5979" y="266.1721">&#25552;&#20132;&#35746;&#21333;</text></g><!--entity B4--><g class="entity" data-qualified-name="B4" data-source-line="59" id="ent0043"><ellipse cx="140.5978" cy="308.5236" fill="#FFFFFF" rx="42.5978" ry="14.5236" style="stroke:#000000;stroke-width:0.5;"/><text fill="#000000" font-family="sans-serif" font-size="14" lengthAdjust="spacing" textLength="55.9998" x="112.5979" y="313.1721">&#25903;&#20184;&#35746;&#21333;</text></g><!--entity B4_1--><g class="entity" data-qualified-name="B4_1" data-source-line="60" id="ent0044"><ellipse cx="342.5978" cy="308.5236" fill="#FFFFFF" rx="42.5978" ry="14.5236" style="stroke:#000000;stroke-width:0.5;"/><text fill="#000000" font-family="sans-serif" font-size="14" lengthAdjust="spacing" textLength="55.9998" x="314.5979" y="313.1721">&#20313;&#39069;&#25903;&#20184;</text></g><!--entity B4_2--><g class="entity" data-qualified-name="B4_2" data-source-line="61" id="ent0045"><ellipse cx="342.5978" cy="355.5236" fill="#FFFFFF" rx="42.5978" ry="14.5236" style="stroke:#000000;stroke-width:0.5;"/><text fill="#000000" font-family="sans-serif" font-size="14" lengthAdjust="spacing" textLength="55.9998" x="314.5979" y="360.1721">&#22312;&#32447;&#25903;&#20184;</text></g><!--entity B5--><g class="entity" data-qualified-name="B5" data-source-line="62" id="ent0046"><ellipse cx="140.5978" cy="402.5236" fill="#FFFFFF" rx="42.5978" ry="14.5236" style="stroke:#000000;stroke-width:0.5;"/><text fill="#000000" font-family="sans-serif" font-size="14" lengthAdjust="spacing" textLength="55.9998" x="112.5979" y="407.1721">&#21806;&#21518;&#26381;&#21153;</text></g><!--entity B5_1--><g class="entity" data-qualified-name="B5_1" data-source-line="63" id="ent0047"><ellipse cx="342.5978" cy="402.5236" fill="#FFFFFF" rx="42.5978" ry="14.5236" style="stroke:#000000;stroke-width:0.5;"/><text fill="#000000" font-family="sans-serif" font-size="14" lengthAdjust="spacing" textLength="55.9998" x="314.5979" y="407.1721">&#30003;&#35831;&#21806;&#21518;</text></g><!--entity B5_2--><g class="entity" data-qualified-name="B5_2" data-source-line="64" id="ent0048"><ellipse cx="342.5978" cy="449.5236" fill="#FFFFFF" rx="42.5978" ry="14.5236" style="stroke:#000000;stroke-width:0.5;"/><text fill="#000000" font-family="sans-serif" font-size="14" lengthAdjust="spacing" textLength="55.9998" x="314.5979" y="454.1721">&#26597;&#30475;&#36827;&#24230;</text></g><g class="link" data-entity-1="ent0001" data-entity-2="ent0004" data-link-type="association" id="lnk49"><path d="M60.1859,1132.8489 C82.6497,1099.0461 114.0667,1051.7711 129.7653,1028.1483" fill="none" style="stroke:#000000;stroke-width:1;"/></g><g class="link" data-entity-1="ent0001" data-entity-2="ent0007" data-link-type="association" id="lnk50"><path d="M61.2676,1155.1845 C78.0372,1144.963 99.4605,1131.905 115.6472,1122.0388" fill="none" style="stroke:#000000;stroke-width:1;"/></g><g class="link" data-entity-1="ent0001" data-entity-2="ent0010" data-link-type="association" id="lnk51"><path d="M61.2676,1171.5 C72.3258,1171.5 85.4077,1171.5 97.6771,1171.5" fill="none" style="stroke:#000000;stroke-width:1;"/></g><g class="link" data-entity-1="ent0001" data-entity-2="ent0013" data-link-type="association" id="lnk52"><path d="M61.2676,1191.1296 C79.374,1204.4076 102.9054,1221.664 119.4131,1233.7696" fill="none" style="stroke:#000000;stroke-width:1;"/></g><g class="link" data-entity-1="ent0001" data-entity-2="ent0016" data-link-type="association" id="lnk53"><path d="M58.3261,1210.3025 C81.1976,1247.5504 114.5425,1301.8549 130.4298,1327.7286" fill="none" style="stroke:#000000;stroke-width:1;"/></g><g class="link" data-entity-1="ent0002" data-entity-2="ent0019" data-link-type="association" id="lnk54"><path d="M59.3835,668.6343 C82.0645,633.2087 114.3589,582.768 130.1199,558.1508" fill="none" style="stroke:#000000;stroke-width:1;"/></g><g class="link" data-entity-1="ent0002" data-entity-2="ent0022" data-link-type="association" id="lnk55"><path d="M61.2676,689.6549 C78.7664,677.9891 101.3322,662.9452 117.728,652.0147" fill="none" style="stroke:#000000;stroke-width:1;"/></g><g class="link" data-entity-1="ent0002" data-entity-2="ent0025" data-link-type="association" id="lnk56"><path d="M61.2676,707.5 C72.3258,707.5 85.4077,707.5 97.6771,707.5" fill="none" style="stroke:#000000;stroke-width:1;"/></g><g class="link" data-entity-1="ent0002" data-entity-2="ent0028" data-link-type="association" id="lnk57"><path d="M61.2676,725.6 C78.7664,737.4325 101.3322,752.6913 117.728,763.778" fill="none" style="stroke:#000000;stroke-width:1;"/></g><g class="link" data-entity-1="ent0002" data-entity-2="ent0031" data-link-type="association" id="lnk58"><path d="M59.1178,746.1852 C81.7878,781.8094 114.2291,832.7885 130.07,857.6814" fill="none" style="stroke:#000000;stroke-width:1;"/></g><g class="link" data-entity-1="ent0003" data-entity-2="ent0034" data-link-type="association" id="lnk59"><path d="M59.1178,199.8148 C81.7878,164.1906 114.2291,113.2115 130.07,88.3186" fill="none" style="stroke:#000000;stroke-width:1;"/></g><g class="link" data-entity-1="ent0003" data-entity-2="ent0037" data-link-type="association" id="lnk60"><path d="M61.2676,220.4 C78.7664,208.5675 101.3322,193.3087 117.728,182.222" fill="none" style="stroke:#000000;stroke-width:1;"/></g><g class="link" data-entity-1="ent0003" data-entity-2="ent0040" data-link-type="association" id="lnk61"><path d="M61.2676,238.5 C72.3258,238.5 85.4077,238.5 97.6771,238.5" fill="none" style="stroke:#000000;stroke-width:1;"/></g><g class="link" data-entity-1="ent0003" data-entity-2="ent0043" data-link-type="association" id="lnk62"><path d="M61.2676,256.3451 C78.7664,268.0109 101.3322,283.0548 117.728,293.9853" fill="none" style="stroke:#000000;stroke-width:1;"/></g><g class="link" data-entity-1="ent0003" data-entity-2="ent0046" data-link-type="association" id="lnk63"><path d="M59.3835,277.3657 C82.0645,312.7913 114.3589,363.232 130.1199,387.8492" fill="none" style="stroke:#000000;stroke-width:1;"/></g><g class="link" data-entity-1="ent0004" data-entity-2="ent0005" data-link-type="dependency" id="lnk64"><polygon fill="#000000" points="299.7859,970.8742,290.3566,968.0303,294.8251,971.4991,291.3564,975.9676,299.7859,970.8742" style="stroke:#000000;stroke-width:1;stroke-linejoin:miter;stroke-miterlimit:10;"/><path d="M173.7835,998.9705 C182.4863,995.4718 191.9897,992.0212 201,989.5 C233.6098,980.3755 266.5943,975.0549 294.8251,971.4991" fill="none" style="stroke:#000000;stroke-width:1;stroke-dasharray:7,7;"/><text fill="#000000" font-family="sans-serif" font-size="14" lengthAdjust="spacing" textLength="67.8535" x="203" y="970.4951">&#171;include&#187;</text></g><g class="link" data-entity-1="ent0004" data-entity-2="ent0006" data-link-type="dependency" id="lnk65"><polygon fill="#000000" points="299.9717,1013.5,290.9717,1009.5,294.9717,1013.5,290.9717,1017.5,299.9717,1013.5" style="stroke:#000000;stroke-width:1;stroke-linejoin:miter;stroke-miterlimit:10;"/><path d="M183.4266,1013.5 C217.6751,1013.5 260.8315,1013.5 294.9717,1013.5" fill="none" style="stroke:#000000;stroke-width:1;stroke-dasharray:7,7;"/><text fill="#000000" font-family="sans-serif" font-size="14" lengthAdjust="spacing" textLength="67.8535" x="203" y="1008.4951">&#171;include&#187;</text></g><g class="link" data-entity-1="ent0007" data-entity-2="ent0008" data-link-type="dependency" id="lnk66"><polygon fill="#000000" points="299.7859,1064.8742,290.3566,1062.0303,294.8251,1065.4991,291.3564,1069.9676,299.7859,1064.8742" style="stroke:#000000;stroke-width:1;stroke-linejoin:miter;stroke-miterlimit:10;"/><path d="M173.7835,1092.9705 C182.4863,1089.4718 191.9897,1086.0212 201,1083.5 C233.6098,1074.3755 266.5943,1069.0549 294.8251,1065.4991" fill="none" style="stroke:#000000;stroke-width:1;stroke-dasharray:7,7;"/><text fill="#000000" font-family="sans-serif" font-size="14" lengthAdjust="spacing" textLength="67.8535" x="203" y="1064.4951">&#171;include&#187;</text></g><g class="link" data-entity-1="ent0007" data-entity-2="ent0009" data-link-type="dependency" id="lnk67"><polygon fill="#000000" points="299.9717,1107.5,290.9717,1103.5,294.9717,1107.5,290.9717,1111.5,299.9717,1107.5" style="stroke:#000000;stroke-width:1;stroke-linejoin:miter;stroke-miterlimit:10;"/><path d="M183.4266,1107.5 C217.6751,1107.5 260.8315,1107.5 294.9717,1107.5" fill="none" style="stroke:#000000;stroke-width:1;stroke-dasharray:7,7;"/><text fill="#000000" font-family="sans-serif" font-size="14" lengthAdjust="spacing" textLength="67.8535" x="203" y="1102.4951">&#171;include&#187;</text></g><g class="link" data-entity-1="ent0010" data-entity-2="ent0011" data-link-type="dependency" id="lnk68"><polygon fill="#000000" points="299.9717,1158.0299,290.6652,1154.8065,294.9896,1158.4534,291.3428,1162.7778,299.9717,1158.0299" style="stroke:#000000;stroke-width:1;stroke-linejoin:miter;stroke-miterlimit:10;"/><path d="M183.4266,1167.9362 C217.6751,1165.0251 260.8494,1161.3553 294.9896,1158.4534" fill="none" style="stroke:#000000;stroke-width:1;stroke-dasharray:7,7;"/><text fill="#000000" font-family="sans-serif" font-size="14" lengthAdjust="spacing" textLength="67.8535" x="203" y="1155.4951">&#171;include&#187;</text></g><g class="link" data-entity-1="ent0010" data-entity-2="ent0012" data-link-type="dependency" id="lnk69"><polygon fill="#000000" points="299.9698,1200.7599,291.135,1196.4072,294.9737,1200.5622,290.8187,1204.401,299.9698,1200.7599" style="stroke:#000000;stroke-width:1;stroke-linejoin:miter;stroke-miterlimit:10;"/><path d="M182.7928,1186.0309 C188.8418,1187.7652 195.041,1189.3316 201,1190.5 C233.8935,1196.9494 266.8227,1199.4486 294.9737,1200.5622" fill="none" style="stroke:#000000;stroke-width:1;stroke-dasharray:7,7;"/><text fill="#000000" font-family="sans-serif" font-size="14" lengthAdjust="spacing" textLength="67.8535" x="203" y="1185.4951">&#171;include&#187;</text></g><g class="link" data-entity-1="ent0013" data-entity-2="ent0014" data-link-type="dependency" id="lnk70"><polygon fill="#000000" points="299.9717,1248.5,290.9717,1244.5,294.9717,1248.5,290.9717,1252.5,299.9717,1248.5" style="stroke:#000000;stroke-width:1;stroke-linejoin:miter;stroke-miterlimit:10;"/><path d="M183.4266,1248.5 C217.6751,1248.5 260.8315,1248.5 294.9717,1248.5" fill="none" style="stroke:#000000;stroke-width:1;stroke-dasharray:7,7;"/><text fill="#000000" font-family="sans-serif" font-size="14" lengthAdjust="spacing" textLength="67.8535" x="203" y="1243.4951">&#171;include&#187;</text></g><g class="link" data-entity-1="ent0013" data-entity-2="ent0015" data-link-type="dependency" id="lnk71"><polygon fill="#000000" points="299.7859,1291.1258,291.3564,1286.0324,294.8251,1290.5009,290.3566,1293.9697,299.7859,1291.1258" style="stroke:#000000;stroke-width:1;stroke-linejoin:miter;stroke-miterlimit:10;"/><path d="M173.7835,1263.0295 C182.4863,1266.5282 191.9897,1269.9788 201,1272.5 C233.6098,1281.6245 266.5943,1286.9451 294.8251,1290.5009" fill="none" style="stroke:#000000;stroke-width:1;stroke-dasharray:7,7;"/><text fill="#000000" font-family="sans-serif" font-size="14" lengthAdjust="spacing" textLength="67.8535" x="203" y="1267.4951">&#171;include&#187;</text></g><g class="link" data-entity-1="ent0016" data-entity-2="ent0017" data-link-type="dependency" id="lnk72"><polygon fill="#000000" points="299.9717,1342.5,290.9717,1338.5,294.9717,1342.5,290.9717,1346.5,299.9717,1342.5" style="stroke:#000000;stroke-width:1;stroke-linejoin:miter;stroke-miterlimit:10;"/><path d="M183.4266,1342.5 C217.6751,1342.5 260.8315,1342.5 294.9717,1342.5" fill="none" style="stroke:#000000;stroke-width:1;stroke-dasharray:7,7;"/><text fill="#000000" font-family="sans-serif" font-size="14" lengthAdjust="spacing" textLength="67.8535" x="203" y="1337.4951">&#171;include&#187;</text></g><g class="link" data-entity-1="ent0016" data-entity-2="ent0018" data-link-type="dependency" id="lnk73"><polygon fill="#000000" points="299.7859,1385.1258,291.3564,1380.0324,294.8251,1384.5009,290.3566,1387.9697,299.7859,1385.1258" style="stroke:#000000;stroke-width:1;stroke-linejoin:miter;stroke-miterlimit:10;"/><path d="M173.7835,1357.0295 C182.4863,1360.5282 191.9897,1363.9788 201,1366.5 C233.6098,1375.6245 266.5943,1380.9451 294.8251,1384.5009" fill="none" style="stroke:#000000;stroke-width:1;stroke-dasharray:7,7;"/><text fill="#000000" font-family="sans-serif" font-size="14" lengthAdjust="spacing" textLength="67.8535" x="203" y="1361.4951">&#171;include&#187;</text></g><g class="link" data-entity-1="ent0019" data-entity-2="ent0020" data-link-type="dependency" id="lnk74"><polygon fill="#000000" points="299.7859,500.8742,290.3566,498.0303,294.8251,501.4991,291.3564,505.9676,299.7859,500.8742" style="stroke:#000000;stroke-width:1;stroke-linejoin:miter;stroke-miterlimit:10;"/><path d="M173.7835,528.9705 C182.4863,525.4718 191.9897,522.0212 201,519.5 C233.6098,510.3755 266.5943,505.0549 294.8251,501.4991" fill="none" style="stroke:#000000;stroke-width:1;stroke-dasharray:7,7;"/><text fill="#000000" font-family="sans-serif" font-size="14" lengthAdjust="spacing" textLength="67.8535" x="203" y="500.4951">&#171;include&#187;</text></g><g class="link" data-entity-1="ent0019" data-entity-2="ent0021" data-link-type="dependency" id="lnk75"><polygon fill="#000000" points="299.9717,543.5,290.9717,539.5,294.9717,543.5,290.9717,547.5,299.9717,543.5" style="stroke:#000000;stroke-width:1;stroke-linejoin:miter;stroke-miterlimit:10;"/><path d="M183.4266,543.5 C217.6751,543.5 260.8315,543.5 294.9717,543.5" fill="none" style="stroke:#000000;stroke-width:1;stroke-dasharray:7,7;"/><text fill="#000000" font-family="sans-serif" font-size="14" lengthAdjust="spacing" textLength="67.8535" x="203" y="538.4951">&#171;include&#187;</text></g><g class="link" data-entity-1="ent0022" data-entity-2="ent0023" data-link-type="dependency" id="lnk76"><polygon fill="#000000" points="299.7859,594.8742,290.3566,592.0303,294.8251,595.4991,291.3564,599.9676,299.7859,594.8742" style="stroke:#000000;stroke-width:1;stroke-linejoin:miter;stroke-miterlimit:10;"/><path d="M173.7835,622.9705 C182.4863,619.4718 191.9897,616.0212 201,613.5 C233.6098,604.3755 266.5943,599.0549 294.8251,595.4991" fill="none" style="stroke:#000000;stroke-width:1;stroke-dasharray:7,7;"/><text fill="#000000" font-family="sans-serif" font-size="14" lengthAdjust="spacing" textLength="67.8535" x="203" y="594.4951">&#171;include&#187;</text></g><g class="link" data-entity-1="ent0022" data-entity-2="ent0024" data-link-type="dependency" id="lnk77"><polygon fill="#000000" points="309.7965,637.5,300.7965,633.5,304.7965,637.5,300.7965,641.5,309.7965,637.5" style="stroke:#000000;stroke-width:1;stroke-linejoin:miter;stroke-miterlimit:10;"/><path d="M183.4266,637.5 C221.1115,637.5 270.6349,637.5 304.7965,637.5" fill="none" style="stroke:#000000;stroke-width:1;stroke-dasharray:7,7;"/><text fill="#000000" font-family="sans-serif" font-size="14" lengthAdjust="spacing" textLength="67.8535" x="203" y="632.4951">&#171;include&#187;</text></g><g class="link" data-entity-1="ent0025" data-entity-2="ent0026" data-link-type="dependency" id="lnk78"><polygon fill="#000000" points="299.9717,689.2758,290.5736,686.3302,295.0044,689.847,291.4876,694.2778,299.9717,689.2758" style="stroke:#000000;stroke-width:1;stroke-linejoin:miter;stroke-miterlimit:10;"/><path d="M183.4266,702.6784 C217.6751,698.7399 260.8642,693.7731 295.0044,689.847" fill="none" style="stroke:#000000;stroke-width:1;stroke-dasharray:7,7;"/><text fill="#000000" font-family="sans-serif" font-size="14" lengthAdjust="spacing" textLength="67.8535" x="203" y="688.4951">&#171;include&#187;</text></g><g class="link" data-entity-1="ent0025" data-entity-2="ent0027" data-link-type="dependency" id="lnk79"><polygon fill="#000000" points="299.737,731.9069,290.7852,727.8001,294.7373,731.8474,290.69,735.7995,299.737,731.9069" style="stroke:#000000;stroke-width:1;stroke-linejoin:miter;stroke-miterlimit:10;"/><path d="M183.1599,720.6986 C189.0996,722.2001 195.1706,723.5351 201,724.5 C233.8893,729.9441 266.6506,731.5132 294.7373,731.8474" fill="none" style="stroke:#000000;stroke-width:1;stroke-dasharray:7,7;"/><text fill="#000000" font-family="sans-serif" font-size="14" lengthAdjust="spacing" textLength="67.8535" x="203" y="719.4951">&#171;include&#187;</text></g><g class="link" data-entity-1="ent0028" data-entity-2="ent0029" data-link-type="dependency" id="lnk80"><polygon fill="#000000" points="299.9717,778.5,290.9717,774.5,294.9717,778.5,290.9717,782.5,299.9717,778.5" style="stroke:#000000;stroke-width:1;stroke-linejoin:miter;stroke-miterlimit:10;"/><path d="M183.4266,778.5 C217.6751,778.5 260.8315,778.5 294.9717,778.5" fill="none" style="stroke:#000000;stroke-width:1;stroke-dasharray:7,7;"/><text fill="#000000" font-family="sans-serif" font-size="14" lengthAdjust="spacing" textLength="67.8535" x="203" y="773.4951">&#171;include&#187;</text></g><g class="link" data-entity-1="ent0028" data-entity-2="ent0030" data-link-type="dependency" id="lnk81"><polygon fill="#000000" points="289.8527,819.826,281.4729,814.6511,284.8982,819.153,280.3962,822.5783,289.8527,819.826" style="stroke:#000000;stroke-width:1;stroke-linejoin:miter;stroke-miterlimit:10;"/><path d="M173.7835,793.0295 C182.4863,796.5282 191.9897,799.9788 201,802.5 C229.9204,810.5922 258.0827,815.511 284.8982,819.153" fill="none" style="stroke:#000000;stroke-width:1;stroke-dasharray:7,7;"/><text fill="#000000" font-family="sans-serif" font-size="14" lengthAdjust="spacing" textLength="67.8535" x="203" y="797.4951">&#171;include&#187;</text></g><g class="link" data-entity-1="ent0031" data-entity-2="ent0032" data-link-type="dependency" id="lnk82"><polygon fill="#000000" points="299.9717,872.5,290.9717,868.5,294.9717,872.5,290.9717,876.5,299.9717,872.5" style="stroke:#000000;stroke-width:1;stroke-linejoin:miter;stroke-miterlimit:10;"/><path d="M183.4266,872.5 C217.6751,872.5 260.8315,872.5 294.9717,872.5" fill="none" style="stroke:#000000;stroke-width:1;stroke-dasharray:7,7;"/><text fill="#000000" font-family="sans-serif" font-size="14" lengthAdjust="spacing" textLength="67.8535" x="203" y="867.4951">&#171;include&#187;</text></g><g class="link" data-entity-1="ent0031" data-entity-2="ent0033" data-link-type="dependency" id="lnk83"><polygon fill="#000000" points="299.7859,915.1258,291.3564,910.0324,294.8251,914.5009,290.3566,917.9697,299.7859,915.1258" style="stroke:#000000;stroke-width:1;stroke-linejoin:miter;stroke-miterlimit:10;"/><path d="M173.7835,887.0295 C182.4863,890.5282 191.9897,893.9788 201,896.5 C233.6098,905.6245 266.5943,910.9451 294.8251,914.5009" fill="none" style="stroke:#000000;stroke-width:1;stroke-dasharray:7,7;"/><text fill="#000000" font-family="sans-serif" font-size="14" lengthAdjust="spacing" textLength="67.8535" x="203" y="891.4951">&#171;include&#187;</text></g><g class="link" data-entity-1="ent0034" data-entity-2="ent0035" data-link-type="dependency" id="lnk84"><polygon fill="#000000" points="299.7859,30.8742,290.3566,28.0303,294.8251,31.4991,291.3564,35.9676,299.7859,30.8742" style="stroke:#000000;stroke-width:1;stroke-linejoin:miter;stroke-miterlimit:10;"/><path d="M173.7835,58.9705 C182.4863,55.4718 191.9897,52.0212 201,49.5 C233.6098,40.3755 266.5943,35.0549 294.8251,31.4991" fill="none" style="stroke:#000000;stroke-width:1;stroke-dasharray:7,7;"/><text fill="#000000" font-family="sans-serif" font-size="14" lengthAdjust="spacing" textLength="67.8535" x="203" y="30.4951">&#171;include&#187;</text></g><g class="link" data-entity-1="ent0034" data-entity-2="ent0036" data-link-type="dependency" id="lnk85"><polygon fill="#000000" points="299.9717,73.5,290.9717,69.5,294.9717,73.5,290.9717,77.5,299.9717,73.5" style="stroke:#000000;stroke-width:1;stroke-linejoin:miter;stroke-miterlimit:10;"/><path d="M183.4266,73.5 C217.6751,73.5 260.8315,73.5 294.9717,73.5" fill="none" style="stroke:#000000;stroke-width:1;stroke-dasharray:7,7;"/><text fill="#000000" font-family="sans-serif" font-size="14" lengthAdjust="spacing" textLength="67.8535" x="203" y="68.4951">&#171;include&#187;</text></g><g class="link" data-entity-1="ent0037" data-entity-2="ent0038" data-link-type="dependency" id="lnk86"><polygon fill="#000000" points="299.7859,124.8742,290.3566,122.0303,294.8251,125.4991,291.3564,129.9676,299.7859,124.8742" style="stroke:#000000;stroke-width:1;stroke-linejoin:miter;stroke-miterlimit:10;"/><path d="M173.7835,152.9705 C182.4863,149.4718 191.9897,146.0212 201,143.5 C233.6098,134.3755 266.5943,129.0549 294.8251,125.4991" fill="none" style="stroke:#000000;stroke-width:1;stroke-dasharray:7,7;"/><text fill="#000000" font-family="sans-serif" font-size="14" lengthAdjust="spacing" textLength="67.8535" x="203" y="124.4951">&#171;include&#187;</text></g><g class="link" data-entity-1="ent0037" data-entity-2="ent0039" data-link-type="dependency" id="lnk87"><polygon fill="#000000" points="299.9717,167.5,290.9717,163.5,294.9717,167.5,290.9717,171.5,299.9717,167.5" style="stroke:#000000;stroke-width:1;stroke-linejoin:miter;stroke-miterlimit:10;"/><path d="M183.4266,167.5 C217.6751,167.5 260.8315,167.5 294.9717,167.5" fill="none" style="stroke:#000000;stroke-width:1;stroke-dasharray:7,7;"/><text fill="#000000" font-family="sans-serif" font-size="14" lengthAdjust="spacing" textLength="67.8535" x="203" y="162.4951">&#171;include&#187;</text></g><g class="link" data-entity-1="ent0040" data-entity-2="ent0041" data-link-type="dependency" id="lnk88"><polygon fill="#000000" points="289.6678,220.7199,280.2553,217.8207,284.7034,221.3156,281.2085,225.7637,289.6678,220.7199" style="stroke:#000000;stroke-width:1;stroke-linejoin:miter;stroke-miterlimit:10;"/><path d="M183.4266,233.4688 C214.3534,229.7576 251.6565,225.2812 284.7034,221.3156" fill="none" style="stroke:#000000;stroke-width:1;stroke-dasharray:7,7;"/><text fill="#000000" font-family="sans-serif" font-size="14" lengthAdjust="spacing" textLength="67.8535" x="203" y="218.4951">&#171;include&#187;</text></g><g class="link" data-entity-1="ent0040" data-entity-2="ent0042" data-link-type="dependency" id="lnk89"><polygon fill="#000000" points="299.7217,262.8188,290.6932,258.8835,294.7218,262.8547,290.7506,266.8833,299.7217,262.8188" style="stroke:#000000;stroke-width:1;stroke-linejoin:miter;stroke-miterlimit:10;"/><path d="M183.1118,252.565 C189.0588,254.1412 195.1446,255.527 201,256.5 C233.866,261.9615 266.6285,263.0562 294.7218,262.8547" fill="none" style="stroke:#000000;stroke-width:1;stroke-dasharray:7,7;"/><text fill="#000000" font-family="sans-serif" font-size="14" lengthAdjust="spacing" textLength="67.8535" x="203" y="251.4951">&#171;include&#187;</text></g><g class="link" data-entity-1="ent0043" data-entity-2="ent0044" data-link-type="dependency" id="lnk90"><polygon fill="#000000" points="299.9717,308.5,290.9717,304.5,294.9717,308.5,290.9717,312.5,299.9717,308.5" style="stroke:#000000;stroke-width:1;stroke-linejoin:miter;stroke-miterlimit:10;"/><path d="M183.4266,308.5 C217.6751,308.5 260.8315,308.5 294.9717,308.5" fill="none" style="stroke:#000000;stroke-width:1;stroke-dasharray:7,7;"/><text fill="#000000" font-family="sans-serif" font-size="14" lengthAdjust="spacing" textLength="67.8535" x="203" y="303.4951">&#171;include&#187;</text></g><g class="link" data-entity-1="ent0043" data-entity-2="ent0045" data-link-type="dependency" id="lnk91"><polygon fill="#000000" points="299.7859,351.1258,291.3564,346.0324,294.8251,350.5009,290.3566,353.9697,299.7859,351.1258" style="stroke:#000000;stroke-width:1;stroke-linejoin:miter;stroke-miterlimit:10;"/><path d="M173.7835,323.0295 C182.4863,326.5282 191.9897,329.9788 201,332.5 C233.6098,341.6245 266.5943,346.9451 294.8251,350.5009" fill="none" style="stroke:#000000;stroke-width:1;stroke-dasharray:7,7;"/><text fill="#000000" font-family="sans-serif" font-size="14" lengthAdjust="spacing" textLength="67.8535" x="203" y="327.4951">&#171;include&#187;</text></g><g class="link" data-entity-1="ent0046" data-entity-2="ent0047" data-link-type="dependency" id="lnk92"><polygon fill="#000000" points="299.9717,402.5,290.9717,398.5,294.9717,402.5,290.9717,406.5,299.9717,402.5" style="stroke:#000000;stroke-width:1;stroke-linejoin:miter;stroke-miterlimit:10;"/><path d="M183.4266,402.5 C217.6751,402.5 260.8315,402.5 294.9717,402.5" fill="none" style="stroke:#000000;stroke-width:1;stroke-dasharray:7,7;"/><text fill="#000000" font-family="sans-serif" font-size="14" lengthAdjust="spacing" textLength="67.8535" x="203" y="397.4951">&#171;include&#187;</text></g><g class="link" data-entity-1="ent0046" data-entity-2="ent0048" data-link-type="dependency" id="lnk93"><polygon fill="#000000" points="299.7859,445.1258,291.3564,440.0324,294.8251,444.5009,290.3566,447.9697,299.7859,445.1258" style="stroke:#000000;stroke-width:1;stroke-linejoin:miter;stroke-miterlimit:10;"/><path d="M173.7835,417.0295 C182.4863,420.5282 191.9897,423.9788 201,426.5 C233.6098,435.6245 266.5943,440.9451 294.8251,444.5009" fill="none" style="stroke:#000000;stroke-width:1;stroke-dasharray:7,7;"/><text fill="#000000" font-family="sans-serif" font-size="14" lengthAdjust="spacing" textLength="67.8535" x="203" y="421.4951">&#171;include&#187;</text></g><?plantuml-src ZPJVJXf15CRlUOgflTRK1MuQO-8swGli0pGRM9KKMBCiCVOAwfyYQC6AgRROWYBIf8MceYBuvsLsPfUtwC8Cx9aTQyhTuNU-R-TyPsUVhHZgKa95SNLDJviebT1CDQa6ujgYYKmT6R6bPHD5OuOMCMDwCf1w6qkkg8QQGEcK5b5Jcgn6tYuPUZePVQN7TGCzNnpz7cdKZQXciAONev_Oz5fFcl_HeiJUQMWs1A0QCNL3CTVY6b9NjPIUqFpmAUj9WsYyO1ZwwhzqyLXICzTMDAGRvh8EG5HRLDDn4re6HWz1TgjcbxRmtY6hyS4MRbsnmhhvFIm2R5GqPPUR97TDDLD8JQ65MG-IwpxELsaBWsy0nhdguAZEOmdWqOEXDOIj6gbsQGk3qDfkP5rV7lkizxFKW-AWttgG-U8yV62GE_Lj3-Ukh6w1VBiQOs3jj4xmxW4yTGW4yltChXHe2uEyzNlSxUBwXgVbJbrkuT97g__7ESrI70PmfBBB5qvxcq5eRVKBUFECqxhMGDxxFDZlWMChGEnSRZYTfjNDMxTL1ZdlXnh9jkr-X-JhOoo6NTp3tNMA8HpzJLiOvApTPtf9AvAOD4XB2GgmkETqpXc4leDCXloyvxISTUbiKCwGZllwDYc6IymVakrJftLltxKOv8vyUqZMgpZNTHzEolVZ3c6FfBABypMAuHvBEsIZIC_787GdXKzs_vZ7S8zEfu6By3xAK7pHn5ixzb4VtnqmoE-nHSetkBrbLxDZBEoHN1QTynp5099InUwSW3tAt1xPYzzkaFNDCOPvTtxPsp_SJO_lXGplOxxglhgqnRbhCCwv5qjMhmwkbSnjavJRLlyGOh1Dw-veS79CMnZahcIbQVSUUFpKAkKm_3Qwb_6QjZ3uI2OFNt6lCSRkAYVVNpGzFVoQyhNaguE-EkIhmu40_GeEA_TEWqA2HH0M8LYu3lIhFwpSjmaK4Yo2i0Z1mdLOc4KpC_EZxpzwYURcOib8F1tLvkS1aVn4eaGIDHCYQ8AK14NDX0YQ42KXKJCXWYPCILZKJ8XV4r3eg8eOWaVy8eMEgeWXU4JGq54LCGIF21ewgYA6u151GqTLn10y8eGWqr5bCGIF-4Ko7LKMG_28eA6Zoc887X4qT5HP3C4ZWeQEAeiXUCId-Gi0?></g></svg>